<?xml version="1.0" encoding="UTF-8" standalone="no"?>
<!-- Created with Inkscape (http://www.inkscape.org/) -->

<svg
   width="450"
   height="450"
   viewBox="0 0 450 450"
   version="1.1"
   id="SVGRoot"
   sodipodi:docname="BB-Logo-Full.svg"
   inkscape:version="1.3 (0e150ed6c4, 2023-07-21)"
   inkscape:export-filename="BB-Logo-64-Cutout.png"
   inkscape:export-xdpi="13.653334"
   inkscape:export-ydpi="13.653334"
   xmlns:inkscape="http://www.inkscape.org/namespaces/inkscape"
   xmlns:sodipodi="http://sodipodi.sourceforge.net/DTD/sodipodi-0.dtd"
   xmlns="http://www.w3.org/2000/svg"
   xmlns:svg="http://www.w3.org/2000/svg">
  <sodipodi:namedview
     id="namedview3923"
     pagecolor="#ffffff"
     bordercolor="#111111"
     borderopacity="1"
     inkscape:showpageshadow="0"
     inkscape:pageopacity="0"
     inkscape:pagecheckerboard="1"
     inkscape:deskcolor="#d1d1d1"
     inkscape:document-units="px"
     showgrid="true"
     inkscape:zoom="1.516"
     inkscape:cx="250"
     inkscape:cy="250"
     inkscape:window-width="1920"
     inkscape:window-height="996"
     inkscape:window-x="1912"
     inkscape:window-y="-8"
     inkscape:window-maximized="1"
     inkscape:current-layer="SVGRoot" />
  <defs
     id="defs3918">
    <inkscape:path-effect
       effect="powermask"
       id="path-effect656"
       is_visible="true"
       lpeversion="1"
       uri="#mask-powermask-path-effect656"
       invert="false"
       hide_mask="false"
       background="true"
       background_color="#ffffffff" />
    <inkscape:path-effect
       effect="fillet_chamfer"
       id="path-effect632"
       is_visible="true"
       lpeversion="1"
       nodesatellites_param="F,0,0,1,0,40,0,1 @ F,0,0,1,0,40,0,1 @ F,0,0,1,0,40,0,1 @ F,0,0,1,0,40,0,1"
       unit="px"
       method="auto"
       mode="F"
       radius="40"
       chamfer_steps="1"
       flexible="false"
       use_knot_distance="true"
       apply_no_radius="true"
       apply_with_radius="true"
       only_selected="false"
       hide_knots="false" />
    <mask
       maskUnits="userSpaceOnUse"
       id="mask-powermask-path-effect656">
      <text
         xml:space="preserve"
         style="font-size:382.603px;line-height:1;font-family:'Alegreya SC';-inkscape-font-specification:'Alegreya SC';text-align:center;letter-spacing:-24.7489px;text-anchor:middle;fill:#ffffff;stroke:#000000;stroke-width:0;stroke-linecap:round;stroke-linejoin:bevel;paint-order:markers fill stroke"
         x="269.11148"
         y="360.03473"
         id="text654"
         transform="scale(0.88958079,1.124125)"><tspan
           sodipodi:role="line"
           id="tspan652"
           x="256.73703"
           y="360.03473"
           style="font-style:normal;font-variant:normal;font-weight:normal;font-stretch:ultra-condensed;font-family:'Bowlby One SC';-inkscape-font-specification:'Bowlby One SC Ultra-Condensed';fill:#000000;stroke-width:0">#!</tspan></text>
    </mask>
    <mask
       maskUnits="userSpaceOnUse"
       id="mask-powermask-path-effect1475">
      <path
         id="mask-powermask-path-effect1475_box"
         style="fill:#ffffff;fill-opacity:1"
         d="M 36.549407,33.91436 H 478.54941 v 442 H 36.549407 Z" />
      <path
         id="path1477"
         style="fill:#ffffff;fill-opacity:1"
         d="M 36.549407,33.91436 H 478.54941 v 442 H 36.549407 Z" />
      <text
         xml:space="preserve"
         style="font-size:382.603px;line-height:1;font-family:'Alegreya SC';-inkscape-font-specification:'Alegreya SC';text-align:center;letter-spacing:-24.7489px;text-anchor:middle;fill:#ffffff;stroke:#000000;stroke-width:0;stroke-linecap:round;stroke-linejoin:bevel;paint-order:markers fill stroke"
         x="269.11148"
         y="360.03473"
         id="text1481"
         transform="scale(0.88958079,1.124125)"><tspan
           sodipodi:role="line"
           id="tspan1479"
           x="256.73703"
           y="360.03473"
           style="font-style:normal;font-variant:normal;font-weight:normal;font-stretch:ultra-condensed;font-family:'Bowlby One SC';-inkscape-font-specification:'Bowlby One SC Ultra-Condensed';fill:#000000;stroke-width:0">#!</tspan></text>
    </mask>
  </defs>
  <path
     id="path1"
     style="display:none;fill:#ffcc00"
     d="M 70,30 C 47.840022,30 30,47.840022 30,70 v 360 c 0,22.15998 17.840022,40 40,40 h 360 c 22.15998,0 40,-17.84002 40,-40 V 70 C 470,47.840022 452.15998,30 430,30 Z m 91.51172,52.597656 h 11.30078 c 3.87774,0 6.81432,0.419737 8.80859,1.259766 2.10506,0.840019 3.48954,2.520948 4.1543,5.041016 -1.21872,8.820261 -2.71364,22.050872 -4.48633,39.691402 -1.77268,17.64052 -3.26761,30.8692 -4.48633,39.68946 h 16.28516 v -31.5 c 0.77555,-11.34034 2.27241,-22.26141 4.48828,-32.76172 2.32664,-10.640316 4.4862,-17.220159 6.48047,-19.740236 h 39.88672 c 1.5511,0 2.60229,0.07093 3.15625,0.210937 0.66476,0.14 1.21894,0.559747 1.66211,1.259766 0.55397,0.700019 0.83203,1.890254 0.83203,3.570312 l -7.97852,78.541021 h 20.27539 c 2.65903,0.27999 3.98829,5.3208 3.98829,15.12109 v 36.12109 c 0,5.88019 -6.20448,8.82032 -18.61329,8.82032 -1.66187,-10e-6 -3.37771,-0.069 -5.15039,-0.20899 -1.77268,-0.14001 -3.26956,-0.27991 -4.48828,-0.41992 -1.10793,-0.14003 -1.77256,-0.21094 -1.99414,-0.21094 -0.44318,3.78011 -0.99735,9.30962 -1.66211,16.58985 -0.66475,7.28021 -1.21893,12.81168 -1.66211,16.59179 h 24.59571 v 55.44141 c -0.33238,3.0801 -1.54923,4.61914 -3.6543,4.61914 -2.88062,0 -7.20166,-0.13991 -12.96289,-0.41992 -5.76123,-0.28001 -10.19468,-0.41992 -13.29688,-0.41992 l -3.65625,38.22265 c -0.11072,1.68005 -0.16601,5.03993 -0.16601,10.08008 0,5.04014 -0.22089,9.37942 -0.66406,13.01953 -0.33238,3.64011 -1.05223,7.55963 -2.16016,11.75977 -0.99713,4.06011 -2.93579,7.2111 -5.81641,9.45117 -2.8806,2.38007 -6.59226,3.57031 -11.13476,3.57031 -0.55396,0 -2.4374,0.069 -5.65039,0.20899 -3.1022,0.14002 -5.87311,0.21093 -8.31055,0.21093 -13.62753,0 -20.82796,-2.6603 -21.60352,-7.98047 0.66477,-6.16018 1.77313,-17.78082 3.32422,-34.86132 1.6619,-17.08051 3.1016,-30.65994 4.32032,-40.74024 -1.5511,0.28001 -3.76782,0.41992 -6.64844,0.41992 h -6.64649 l -5.31835,59.22071 c -0.22159,1.26002 -0.49965,3.22078 -0.83204,5.88086 -0.22157,2.66007 -0.44246,4.62082 -0.66406,5.88085 -0.11079,1.26005 -0.44213,2.93902 -0.99609,5.03907 -0.55397,1.96006 -1.27576,3.36115 -2.16211,4.20117 -0.77555,0.98004 -1.93914,1.8195 -3.49024,2.51953 -1.4403,0.84001 -3.15611,1.25977 -5.15039,1.25977 -8.64183,0 -20.94035,-0.27983 -36.89453,-0.83985 l -4.98633,-9.66015 7.97852,-73.08204 h -3.99023 c -9.195813,0 -14.846111,-0.69957 -16.951177,-2.0996 -1.994269,-1.54005 -2.990234,-6.1611 -2.990234,-13.86133 0,-3.08009 0.05522,-9.24019 0.166015,-18.48047 0.110774,-9.24027 0.166016,-16.52164 0.166016,-21.8418 0,-3.08009 0.997918,-5.1098 2.992188,-6.08984 1.994278,-0.98002 4.873658,-1.46875 8.640624,-1.46875 h 19.277348 v -30.24219 h -4.81836 c -1.10792,0 -2.66002,-0.069 -4.6543,-0.20898 -1.88347,-0.14001 -3.37841,-0.35085 -4.48633,-0.63086 -0.99714,-0.42 -2.10549,-0.83976 -3.324217,-1.25977 -1.107915,-0.56003 -1.938218,-1.25958 -2.492187,-2.09961 -0.55397,-0.98003 -0.832032,-2.10129 -0.832032,-3.36133 0,-5.18015 0.112405,-13.09016 0.333985,-23.73047 0.22159,-10.78031 0.332031,-18.97013 0.332031,-24.57031 0,-5.04014 6.31493,-7.56054 18.94531,-7.56054 1.99427,0 4.37667,0.13991 7.14649,0.41992 2.76981,0.14004 4.20951,0.21093 4.32031,0.21093 l 7.81055,-70.562495 c 0.11079,-2.240068 0.33362,-4.060899 0.66601,-5.460937 0.44317,-1.400039 1.16303,-2.590284 2.16016,-3.570313 0.99714,-1.120039 1.93787,-1.888574 2.82422,-2.308594 0.99713,-0.560009 2.65969,-0.979756 4.98632,-1.259765 2.43746,-0.28001 4.65417,-0.421875 6.64844,-0.421875 1.99427,-0.13998 4.98411,-0.208985 8.97266,-0.208985 z m 224.60937,0.419922 c 9.97135,0 14.95703,2.800226 14.95703,8.400391 L 389.11328,282.73438 c -0.11079,1.40003 -0.72019,2.65926 -1.82812,3.77929 -1.10793,0.98004 -2.66003,1.75054 -4.6543,2.31055 -1.88348,0.42001 -3.87736,0.77077 -5.98242,1.05078 -2.10507,0.13999 -4.48746,0.20898 -7.14649,0.20898 -1.44031,0 -3.59985,-0.069 -6.48047,-0.20898 -2.88061,-0.14003 -5.04212,-0.21094 -6.48242,-0.21094 -2.99141,0 -7.36768,0.13991 -13.1289,0.41992 -5.76122,0.28 -10.13749,0.41993 -13.12891,0.41993 h -14.29102 c -1.21871,-0.56001 -2.32709,-1.39951 -3.32421,-2.51953 -0.88634,-1.12003 -1.60619,-2.52113 -2.16016,-4.20118 -0.55396,-1.82006 -0.99769,-3.49902 -1.33008,-5.03906 -0.33238,-1.68005 -0.55326,-3.7807 -0.66406,-6.30078 -0.11079,-2.52008 -0.2232,-4.5498 -0.33399,-6.08984 v -6.50977 L 298.70508,92.677734 c 0,-4.760145 9.41911,-7.140625 28.2539,-7.140625 h 19.94141 c 16.39735,-1.680048 29.47093,-2.519531 39.2207,-2.519531 z m -218.625,133.564452 v 5.45899 c -0.66476,4.20012 -1.99596,10.9908 -3.99023,20.37109 -1.99428,9.24027 -3.32352,16.31079 -3.98828,21.21094 0,3.92011 1.10836,5.88086 3.32422,5.88086 h 25.92578 L 194.75,223.30273 c -0.33238,-3.92011 -1.88254,-5.88085 -4.65234,-5.88085 h -7.97852 c -3.54537,-0.56001 -5.98298,-0.83985 -7.3125,-0.83985 z M 308.3457,324.94531 h 32.57227 c 11.52246,0 20.71874,0.13992 27.58789,0.41992 6.86915,0.28001 12.07573,0.77069 15.62109,1.47071 3.65617,0.56003 5.98334,1.25958 6.98047,2.09961 1.10793,0.84002 1.66211,2.03026 1.66211,3.57031 v 66.36133 c -0.22158,1.40004 -1.77368,2.59028 -4.6543,3.57031 -2.76981,0.98003 -6.53669,1.75054 -11.30078,2.31055 -4.6533,0.56003 -9.58375,0.97977 -14.79101,1.25976 -5.20727,0.42002 -10.91279,0.63086 -17.11719,0.63086 h -15.78711 c -4.43172,0 -8.92038,-0.0709 -13.46289,-0.21094 h -7.64453 v -3.35937 c -0.33238,-0.42001 -1.10744,-0.98163 -2.32617,-1.68164 -1.10793,-0.70003 -1.71735,-1.25967 -1.82813,-1.67969 l -1.49609,-31.91992 c 0,-11.06032 0.55418,-20.93107 1.66211,-29.61133 1.10793,-8.82025 2.54956,-13.23047 4.32226,-13.23047 z"
     inkscape:label="Cutout"
     transform="translate(-25,-25)"
     sodipodi:insensitive="true" />
  <g
     id="g1453"
     inkscape:label="Outline"
     style="display:none"
     transform="translate(-25,-25)"
     sodipodi:insensitive="true">
    <path
       id="path1403"
       style="font-stretch:ultra-condensed;font-size:382.603px;line-height:1;font-family:'Bowlby One SC';-inkscape-font-specification:'Bowlby One SC Ultra-Condensed';text-align:center;letter-spacing:-24.7489px;text-anchor:middle;display:inline;fill:#000000;stroke:#000000;stroke-width:0;stroke-linecap:round;stroke-linejoin:bevel;paint-order:markers fill stroke"
       d="m 161.51111,82.597955 c -3.98855,0 -6.97838,0.069 -8.97265,0.20898 -1.99427,0 -4.21099,0.14187 -6.64845,0.42188 -2.32664,0.28001 -3.98919,0.69975 -4.98632,1.25976 -0.88635,0.42002 -1.82708,1.18856 -2.82422,2.3086 -0.99713,0.98003 -1.71698,2.17027 -2.16015,3.57031 -0.33239,1.40004 -0.55523,3.22087 -0.66602,5.46094 l -7.81055,70.562505 c -0.1108,0 -1.55049,-0.0709 -4.32031,-0.21094 -2.76982,-0.28001 -5.15221,-0.41992 -7.14648,-0.41992 -12.6304,0 -18.945317,2.52039 -18.945317,7.56054 0,5.60018 -0.11044,13.78999 -0.33203,24.57032 -0.22158,10.64032 -0.33399,18.55031 -0.33399,23.73047 0,1.26004 0.27807,2.38129 0.83204,3.36132 0.55397,0.84003 1.38426,1.53959 2.492176,2.09962 1.218731,0.42001 2.327091,0.83976 3.324231,1.25976 1.10792,0.28001 2.60285,0.49085 4.48632,0.63086 1.99428,0.14 3.54638,0.20899 4.6543,0.20899 h 4.81836 v 30.24219 H 97.694713 c -3.76697,0 -6.646357,0.48872 -8.640637,1.46874 -1.994271,0.98004 -2.992185,3.00976 -2.992185,6.08985 0,5.32016 -0.05524,12.60151 -0.166014,21.84179 -0.110797,9.24029 -0.166013,15.40038 -0.166013,18.48047 0,7.70024 0.995957,12.32128 2.990228,13.86133 2.105068,1.40004 7.755361,2.09961 16.951178,2.09961 h 3.99023 l -7.97852,73.08203 4.98633,9.66015 c 15.95419,0.56002 28.25269,0.83985 36.89453,0.83985 1.99428,0 3.71009,-0.41975 5.1504,-1.25976 1.5511,-0.70003 2.71468,-1.5395 3.49023,-2.51954 0.88635,-0.84002 1.60814,-2.24111 2.16211,-4.20117 0.55396,-2.10005 0.8853,-3.77901 0.99609,-5.03906 0.2216,-1.26004 0.44249,-3.22078 0.66406,-5.88086 0.33239,-2.66008 0.61045,-4.62083 0.83204,-5.88086 l 5.31836,-59.2207 h 6.64648 c 2.88062,0 5.09734,-0.13992 6.64844,-0.41993 -1.21872,10.08031 -2.65842,23.65972 -4.32032,40.74024 -1.5511,17.08052 -2.65945,28.70114 -3.32422,34.86133 0.77556,5.32017 7.97599,7.98046 21.60353,7.98046 2.43744,0 5.20834,-0.0709 8.31054,-0.21093 3.213,-0.14 5.09643,-0.20898 5.65039,-0.20898 4.54251,0 8.25415,-1.19024 11.13476,-3.57031 2.88062,-2.24007 4.81928,-5.39105 5.81641,-9.45117 1.10793,-4.20014 1.82778,-8.11967 2.16016,-11.75978 0.44317,-3.64011 0.66406,-7.97938 0.66406,-13.01953 0,-5.04015 0.0553,-8.40002 0.16602,-10.08007 l 3.65625,-38.22267 c 3.1022,0 7.53563,0.13992 13.29687,0.41993 5.76124,0.28001 10.08227,0.41992 12.96289,0.41992 2.10507,0 3.32192,-1.53904 3.6543,-4.61914 v -55.4414 h -24.59571 c 0.44318,-3.78012 0.99736,-9.31158 1.66211,-16.5918 0.66476,-7.28023 1.21894,-12.80973 1.66212,-16.58984 0.22158,0 0.8862,0.0709 1.99413,0.21093 1.21872,0.14001 2.7156,0.27992 4.48829,0.41993 1.77268,0.14 3.4885,0.20897 5.15038,0.20897 12.40882,0 18.61329,-2.94012 18.61329,-8.82031 v -36.12109 c 0,-9.8003 -1.32925,-14.84109 -3.98828,-15.12109 h -20.27539 l 7.97851,-78.541015 c 0,-1.68006 -0.27806,-2.8703 -0.83203,-3.57032 -0.44317,-0.70002 -0.99735,-1.11976 -1.66211,-1.25976 -0.55396,-0.14001 -1.60515,-0.21094 -3.15625,-0.21094 h -39.88672 c -1.99427,2.52008 -4.15382,9.09991 -6.48046,19.740235 -2.21587,10.50032 -3.71274,21.42137 -4.48829,32.76172 v 31.5 h -16.28515 c 1.21872,-8.82027 2.71364,-22.04892 4.48632,-39.68945 1.77269,-17.64055 3.26761,-30.871145 4.48633,-39.691415 -0.66476,-2.52007 -2.04923,-4.20099 -4.15429,-5.04101 -1.99428,-0.84003 -4.93085,-1.25977 -8.80859,-1.25977 z m 224.60938,0.41992 c -9.74978,0 -22.82334,0.83948 -39.22071,2.51953 h -19.9414 c -18.83481,0 -28.25391,2.38048 -28.25391,7.14063 l 9.47266,167.166015 v 6.50977 c 0.11079,1.54005 0.22319,3.56976 0.33398,6.08984 0.1108,2.52008 0.33168,4.62074 0.66406,6.30079 0.33239,1.54004 0.77612,3.219 1.33008,5.03906 0.55397,1.68005 1.27382,3.08114 2.16016,4.20117 0.99713,1.12003 2.10549,1.95952 3.32421,2.51953 h 14.29102 c 2.99142,0 7.36768,-0.13992 13.1289,-0.41992 5.76123,-0.28001 10.1375,-0.41992 13.12892,-0.41992 1.4403,0 3.6018,0.0709 6.48242,0.21093 2.88062,0.14001 5.04016,0.20899 6.48047,0.20899 2.65903,0 5.04141,-0.069 7.14648,-0.20899 2.10506,-0.28001 4.09894,-0.63077 5.98242,-1.05078 1.99427,-0.56001 3.54637,-1.33051 4.6543,-2.31055 1.10793,-1.12003 1.71733,-2.37925 1.82812,-3.77929 L 401.07752,91.418265 c 0,-5.60017 -4.98567,-8.40039 -14.95703,-8.40039 z m -218.625,133.564465 h 7.31054 c 1.32952,0 3.76713,0.27983 7.3125,0.83984 h 7.97852 c 2.76981,0 4.31996,1.96074 4.65234,5.88086 l -5.98242,46.20117 h -25.92578 c -2.21586,0 -3.32422,-1.96074 -3.32422,-5.88086 0.66476,-4.90015 1.994,-11.97065 3.98828,-21.21093 1.99427,-9.3803 3.32548,-16.17098 3.99024,-20.37111 z M 308.3451,324.94562 c -1.7727,0 -3.21434,4.4102 -4.32227,13.23046 -1.10793,8.68027 -1.66211,18.551 -1.66211,29.61133 l 1.4961,31.91993 c 0.11078,0.42002 0.72019,0.97966 1.82812,1.67969 1.21873,0.70001 1.99379,1.26162 2.32617,1.68163 v 3.35938 h 7.64453 c 4.54251,0.14 9.03117,0.21093 13.4629,0.21093 h 15.7871 c 6.20441,0 11.90992,-0.21084 17.11719,-0.63086 5.20727,-0.27999 10.13771,-0.69973 14.79102,-1.25976 4.76409,-0.56001 8.53096,-1.33052 11.30078,-2.31055 2.88062,-0.98003 4.43271,-2.17027 4.65429,-3.57031 v -66.36132 c 0,-1.54005 -0.55418,-2.73029 -1.66211,-3.57031 -0.99713,-0.84003 -3.3243,-1.53959 -6.98047,-2.09962 -3.54537,-0.70002 -8.75193,-1.1907 -15.62109,-1.47071 -6.86916,-0.28 -16.06542,-0.41991 -27.58789,-0.41991 z"
       sodipodi:insensitive="true" />
    <path
       id="rect1391"
       d="m 70,30 h 360 a 40,40 45 0 1 40,40 v 360 a 40,40 135 0 1 -40,40 H 70 A 40,40 45 0 1 30,430 V 70 A 40,40 135 0 1 70,30 Z"
       style="display:inline;fill:none;stroke:#000000;stroke-width:10;stroke-linecap:round;stroke-linejoin:bevel;stroke-dasharray:none;paint-order:markers fill stroke"
       sodipodi:insensitive="true" />
  </g>
  <g
     id="g212"
     inkscape:label="White"
     style="display:none;stroke:#ffffff;stroke-opacity:1"
     transform="translate(-24.25762,-24.717612)"
     sodipodi:insensitive="true">
    <path
       id="path1148"
       style="display:inline;fill:#ffffff;fill-opacity:1;fill-rule:nonzero;stroke:#ffffff;stroke-width:0;stroke-linecap:round;stroke-linejoin:round;stroke-opacity:1;paint-order:markers fill stroke"
       d="m 162.87285,81.815268 c -7.62383,0.472498 -15.82144,-0.382709 -22.96875,2.699219 -5.78145,3.8904 -4.6868,11.94421 -5.99609,17.943363 -2.43839,21.06225 -4.62724,42.15165 -7.03125,63.21679 -8.66179,-0.43675 -17.9461,-1.48844 -26.16601,1.875 -4.335658,1.78493 -4.346862,6.69743 -4.306646,10.64063 -0.09288,15.15276 -0.987992,30.36212 -0.03516,45.48828 1.321209,5.13356 8.004746,5.42245 12.304696,5.82227 3.15724,0.64809 9.28459,-1.89472 7.74023,3.35937 v 25.58594 c -9.01526,0.5969 -18.343455,-0.42452 -27.173832,1.63476 -4.737713,2.23997 -3.155425,8.68739 -3.734375,12.90039 0.08302,14.52529 -0.841491,29.13399 0.554687,43.61133 0.146819,4.77701 5.038406,6.64039 9.107422,6.78321 4.601682,0.60968 9.252958,0.50614 13.882818,0.51171 -2.89539,24.22214 -5.58076,48.54682 -7.875,72.79688 2.14732,3.28791 3.20497,7.59321 5.99609,10.2793 12.68396,-0.0966 25.42162,1.13279 38.07813,0.13867 5.99649,-0.20698 10.06564,-5.65183 10.32031,-11.32227 3.40444,-24.06892 4.87382,-48.36307 7.19531,-72.55078 3.67412,0.4447 9.12374,-0.88513 11.69727,0.66016 -2.1025,24.32387 -5.49918,48.56402 -6.76758,72.95117 -0.6772,4.28275 3.01467,6.92087 6.66602,7.90234 9.86949,2.61898 20.31275,1.55067 30.40625,1.26367 7.29721,-0.0218 13.7449,-5.23826 15.62695,-12.23242 5.06862,-15.64611 2.69907,-32.34774 4.83203,-48.42383 0.7366,-8.35973 1.35823,-16.82459 2.52148,-25.09765 9.04373,-0.25402 18.17731,1.22503 27.15821,0.39258 3.47851,-2.79727 1.92946,-8.2547 2.56445,-12.14844 0.0612,-16.04989 0.44494,-32.26487 -0.1582,-48.20899 -7.07181,-0.96271 -14.82703,-0.11872 -22.1543,-0.40429 -3.51898,0.75774 -1.23431,-3.91361 -1.53516,-6.01367 0.9854,-8.56521 1.43219,-17.77145 2.98633,-25.95118 9.13959,0.4982 19.55605,1.9482 27.51172,-3.61523 3.26231,-3.2138 1.52734,-8.5207 2.24414,-12.60352 0.0982,-13.08703 0.70264,-26.27867 -0.77148,-39.29882 -0.3314,-3.70291 -3.76932,-5.82016 -7.28711,-5.43946 -5.27353,-0.2507 -10.58046,0.17843 -15.83399,-0.41601 2.27344,-25.92612 5.74625,-51.88559 7.35157,-77.908206 0.26098,-3.182628 -2.48669,-5.978088 -5.79102,-4.875 h -40.04492 c -3.92663,5.09641 -4.80313,12.226416 -6.55859,18.437496 -5.18771,21.36688 -5.3765,43.47767 -5.15821,65.33594 h -14.57031 c 2.66549,-26.19857 5.86937,-52.41355 8.51367,-78.61328 -1.29472,-6.056264 -8.54093,-7.004432 -13.69922,-7.009765 -3.21167,-0.132302 -6.4289,-0.120777 -9.64258,-0.09766 z m 219.75196,0.738282 c -19.39114,0.352133 -38.58791,3.03486 -57.99024,2.576171 -8.19529,0.562342 -17.25233,-0.345848 -24.58203,3.964844 -3.17937,2.656461 -0.70457,7.509746 -1.29492,11.011715 2.71393,58.25698 6.56189,116.50493 9.375,174.72461 0.93459,5.29489 1.34227,12.10367 6.26172,15.30078 11.87135,1.37424 23.93716,0.27929 35.8789,0.49024 10.7332,-0.39388 21.62858,0.24427 32.26563,-1.15625 3.53996,-0.9123 7.38119,-3.34093 6.77148,-7.55274 4.55535,-58.21755 7.71375,-116.53937 11.33008,-174.82226 -0.23641,-6.62679 2.23959,-13.800507 -0.50781,-20.115235 -3.66979,-5.397403 -11.95045,-4.086634 -17.50781,-4.421875 z m -214.73828,134.36523 5.03125,0.34766 c 6.65055,0.94897 13.71236,-0.10757 19.95507,2.13477 2.29971,3.58215 -0.063,8.4038 0.0606,12.45312 -1.44317,12.43098 -3.15171,24.8426 -4.74609,37.26563 -8.65814,-0.35387 -17.48095,0.70862 -26.04883,-0.62891 -3.51372,-2.16406 -0.87653,-7.2814 -0.91211,-10.48047 1.92579,-13.69574 6.24967,-27.19099 6.66016,-41.0918 z m 139.69726,107.5 -0.54883,0.36914 -0.38867,0.25977 c -4.44238,10.8954 -3.82345,23.01688 -4.48242,34.5625 -0.16095,13.6794 -0.10112,27.58587 1.4082,41.08203 1.93044,1.10699 4.43695,2.526 3.47657,5.31055 2.52177,2.37003 7.47196,0.31217 10.89257,1 22.11867,-0.30039 44.48045,0.90913 66.37696,-2.84375 3.61013,-0.86969 9.56796,-2.08057 8.79101,-7.08985 0.58725,-22.14567 0.0129,-44.30588 0.041,-66.45703 -4.5957,-5.7414 -13.03929,-4.67841 -19.64258,-5.35156 -21.96659,-0.69221 -43.9499,-0.56457 -65.92383,-0.8418 z"
       sodipodi:insensitive="true" />
    <path
       style="display:inline;fill:#ffffff;fill-opacity:1;fill-rule:nonzero;stroke:#ffffff;stroke-width:0;stroke-linecap:round;stroke-linejoin:round;stroke-opacity:1;paint-order:markers fill stroke"
       d="M 62.023314,24.774798 C 49.524425,27.87293 37.788783,35.206705 31.193313,46.489786 c -4.444468,7.663738 -7.652173,16.445891 -6.797287,25.40995 0.02577,121.463904 -0.05153,242.934924 0.03865,364.394384 2.997301,14.06486 11.45533,27.34289 24.491363,33.98901 6.843055,3.87072 14.703053,5.2274 22.496939,4.7946 100.310442,0.70831 200.626022,0.15286 300.938472,0.2374 22.09608,-0.0507 44.20453,0.0464 66.2929,-0.0964 12.96946,-3.48108 24.97056,-11.62079 31.29123,-23.69001 3.88885,-7.39564 6.54877,-15.652 5.65839,-24.08812 -0.0258,-121.24402 0.0515,-242.49517 -0.0387,-363.734743 C 473.28952,53.4634 468.5735,43.595735 460.55537,36.615602 454.24689,30.265981 445.60995,26.449587 437.00528,24.725841 312.01257,24.758479 187.00965,24.660565 62.023314,24.774798 Z M 250,35.960175 c 62.27583,0 124.55166,0 186.82749,0 12.67924,3.388909 24.16683,13.214301 26.45479,26.508905 1.11648,36.288394 0.51514,72.70771 0.7368,109.04647 -0.10314,85.81297 0.34649,171.62992 -0.39925,257.44018 0.37344,7.10881 -0.87235,14.40482 -5.18429,20.26818 -5.26621,7.79135 -14.24609,13.54728 -23.58823,14.81713 -118.96123,-0.0622 -237.9243,0.45682 -356.884366,-0.12119 -8.477932,-0.18443 -17.52048,0.73267 -24.996157,-4.16424 C 42.67984,454.03641 35.365563,442.46086 36.396922,430.52235 35.610221,350.1702 36.107914,269.80986 35.968704,189.45441 c 0.20569,-41.99431 -0.375632,-84.05595 0.66012,-126.008768 1.65271,-13.060213 12.712904,-23.43382 25.059995,-26.943059 7.779469,-1.259023 15.971857,-0.185956 23.911135,-0.542408 54.800016,0 109.600036,0 164.400046,0 z"
       id="path1160"
       sodipodi:insensitive="true" />
  </g>
  <g
     id="g1509"
     inkscape:label="Full"
     style="display:inline"
     transform="translate(-25,-25)"
     sodipodi:insensitive="true">
    <path
       id="rect1"
       style="display:inline;fill:#ffcc00"
       d="M 70,30 C 47.840022,30 30,47.840022 30,70 v 360 c 0,22.15998 17.840022,40 40,40 h 360 c 22.15998,0 40,-17.84002 40,-40 V 70 C 470,47.840022 452.15998,30 430,30 Z m 91.51172,52.597656 h 11.30078 c 3.87774,0 6.81432,0.419737 8.80859,1.259766 2.10506,0.840019 3.48954,2.520948 4.1543,5.041016 -1.21872,8.820261 -2.71364,22.050872 -4.48633,39.691402 -1.77268,17.64052 -3.26761,30.8692 -4.48633,39.68946 h 16.28516 v -31.5 c 0.77555,-11.34034 2.27241,-22.26141 4.48828,-32.76172 2.32664,-10.640316 4.4862,-17.220159 6.48047,-19.740236 h 39.88672 c 1.5511,0 2.60229,0.07093 3.15625,0.210937 0.66476,0.14 1.21894,0.559747 1.66211,1.259766 0.55397,0.700019 0.83203,1.890254 0.83203,3.570312 l -7.97852,78.541021 h 20.27539 c 2.65903,0.27999 3.98829,5.3208 3.98829,15.12109 v 36.12109 c 0,5.88019 -6.20448,8.82032 -18.61329,8.82032 -1.66187,-10e-6 -3.37771,-0.069 -5.15039,-0.20899 -1.77268,-0.14001 -3.26956,-0.27991 -4.48828,-0.41992 -1.10793,-0.14003 -1.77256,-0.21094 -1.99414,-0.21094 -0.44318,3.78011 -0.99735,9.30962 -1.66211,16.58985 -0.66475,7.28021 -1.21893,12.81168 -1.66211,16.59179 h 24.59571 v 55.44141 c -0.33238,3.0801 -1.54923,4.61914 -3.6543,4.61914 -2.88062,0 -7.20166,-0.13991 -12.96289,-0.41992 -5.76123,-0.28001 -10.19468,-0.41992 -13.29688,-0.41992 l -3.65625,38.22265 c -0.11072,1.68005 -0.16601,5.03993 -0.16601,10.08008 0,5.04014 -0.22089,9.37942 -0.66406,13.01953 -0.33238,3.64011 -1.05223,7.55963 -2.16016,11.75977 -0.99713,4.06011 -2.93579,7.2111 -5.81641,9.45117 -2.8806,2.38007 -6.59226,3.57031 -11.13476,3.57031 -0.55396,0 -2.4374,0.069 -5.65039,0.20899 -3.1022,0.14002 -5.87311,0.21093 -8.31055,0.21093 -13.62753,0 -20.82796,-2.6603 -21.60352,-7.98047 0.66477,-6.16018 1.77313,-17.78082 3.32422,-34.86132 1.6619,-17.08051 3.1016,-30.65994 4.32032,-40.74024 -1.5511,0.28001 -3.76782,0.41992 -6.64844,0.41992 h -6.64649 l -5.31835,59.22071 c -0.22159,1.26002 -0.49965,3.22078 -0.83204,5.88086 -0.22157,2.66007 -0.44246,4.62082 -0.66406,5.88085 -0.11079,1.26005 -0.44213,2.93902 -0.99609,5.03907 -0.55397,1.96006 -1.27576,3.36115 -2.16211,4.20117 -0.77555,0.98004 -1.93914,1.8195 -3.49024,2.51953 -1.4403,0.84001 -3.15611,1.25977 -5.15039,1.25977 -8.64183,0 -20.94035,-0.27983 -36.89453,-0.83985 l -4.98633,-9.66015 7.97852,-73.08204 h -3.99023 c -9.195813,0 -14.846111,-0.69957 -16.951177,-2.0996 -1.994269,-1.54005 -2.990234,-6.1611 -2.990234,-13.86133 0,-3.08009 0.05522,-9.24019 0.166015,-18.48047 0.110774,-9.24027 0.166016,-16.52164 0.166016,-21.8418 0,-3.08009 0.997918,-5.1098 2.992188,-6.08984 1.994278,-0.98002 4.873658,-1.46875 8.640624,-1.46875 h 19.277348 v -30.24219 h -4.81836 c -1.10792,0 -2.66002,-0.069 -4.6543,-0.20898 -1.88347,-0.14001 -3.37841,-0.35085 -4.48633,-0.63086 -0.99714,-0.42 -2.10549,-0.83976 -3.324217,-1.25977 -1.107915,-0.56003 -1.938218,-1.25958 -2.492187,-2.09961 -0.55397,-0.98003 -0.832032,-2.10129 -0.832032,-3.36133 0,-5.18015 0.112405,-13.09016 0.333985,-23.73047 0.22159,-10.78031 0.332031,-18.97013 0.332031,-24.57031 0,-5.04014 6.31493,-7.56054 18.94531,-7.56054 1.99427,0 4.37667,0.13991 7.14649,0.41992 2.76981,0.14004 4.20951,0.21093 4.32031,0.21093 l 7.81055,-70.562495 c 0.11079,-2.240068 0.33362,-4.060899 0.66601,-5.460937 0.44317,-1.400039 1.16303,-2.590284 2.16016,-3.570313 0.99714,-1.120039 1.93787,-1.888574 2.82422,-2.308594 0.99713,-0.560009 2.65969,-0.979756 4.98632,-1.259765 2.43746,-0.28001 4.65417,-0.421875 6.64844,-0.421875 1.99427,-0.13998 4.98411,-0.208985 8.97266,-0.208985 z m 224.60937,0.419922 c 9.97135,0 14.95703,2.800226 14.95703,8.400391 L 389.11328,282.73438 c -0.11079,1.40003 -0.72019,2.65926 -1.82812,3.77929 -1.10793,0.98004 -2.66003,1.75054 -4.6543,2.31055 -1.88348,0.42001 -3.87736,0.77077 -5.98242,1.05078 -2.10507,0.13999 -4.48746,0.20898 -7.14649,0.20898 -1.44031,0 -3.59985,-0.069 -6.48047,-0.20898 -2.88061,-0.14003 -5.04212,-0.21094 -6.48242,-0.21094 -2.99141,0 -7.36768,0.13991 -13.1289,0.41992 -5.76122,0.28 -10.13749,0.41993 -13.12891,0.41993 h -14.29102 c -1.21871,-0.56001 -2.32709,-1.39951 -3.32421,-2.51953 -0.88634,-1.12003 -1.60619,-2.52113 -2.16016,-4.20118 -0.55396,-1.82006 -0.99769,-3.49902 -1.33008,-5.03906 -0.33238,-1.68005 -0.55326,-3.7807 -0.66406,-6.30078 -0.11079,-2.52008 -0.2232,-4.5498 -0.33399,-6.08984 v -6.50977 L 298.70508,92.677734 c 0,-4.760145 9.41911,-7.140625 28.2539,-7.140625 h 19.94141 c 16.39735,-1.680048 29.47093,-2.519531 39.2207,-2.519531 z m -218.625,133.564452 v 5.45899 c -0.66476,4.20012 -1.99596,10.9908 -3.99023,20.37109 -1.99428,9.24027 -3.32352,16.31079 -3.98828,21.21094 0,3.92011 1.10836,5.88086 3.32422,5.88086 h 25.92578 L 194.75,223.30273 c -0.33238,-3.92011 -1.88254,-5.88085 -4.65234,-5.88085 h -7.97852 c -3.54537,-0.56001 -5.98298,-0.83985 -7.3125,-0.83985 z M 308.3457,324.94531 h 32.57227 c 11.52246,0 20.71874,0.13992 27.58789,0.41992 6.86915,0.28001 12.07573,0.77069 15.62109,1.47071 3.65617,0.56003 5.98334,1.25958 6.98047,2.09961 1.10793,0.84002 1.66211,2.03026 1.66211,3.57031 v 66.36133 c -0.22158,1.40004 -1.77368,2.59028 -4.6543,3.57031 -2.76981,0.98003 -6.53669,1.75054 -11.30078,2.31055 -4.6533,0.56003 -9.58375,0.97977 -14.79101,1.25976 -5.20727,0.42002 -10.91279,0.63086 -17.11719,0.63086 h -15.78711 c -4.43172,0 -8.92038,-0.0709 -13.46289,-0.21094 h -7.64453 v -3.35937 c -0.33238,-0.42001 -1.10744,-0.98163 -2.32617,-1.68164 -1.10793,-0.70003 -1.71735,-1.25967 -1.82813,-1.67969 l -1.49609,-31.91992 c 0,-11.06032 0.55418,-20.93107 1.66211,-29.61133 1.10793,-8.82025 2.54956,-13.23047 4.32226,-13.23047 z"
       inkscape:label="Cutout"
       sodipodi:insensitive="true" />
    <path
       id="path1459"
       style="font-stretch:ultra-condensed;font-size:382.603px;line-height:1;font-family:'Bowlby One SC';-inkscape-font-specification:'Bowlby One SC Ultra-Condensed';text-align:center;letter-spacing:-24.7489px;text-anchor:middle;display:inline;fill:#000000;stroke:#000000;stroke-width:0;stroke-linecap:round;stroke-linejoin:bevel;paint-order:markers fill stroke"
       d="m 161.51111,82.597955 c -3.98855,0 -6.97838,0.069 -8.97265,0.20898 -1.99427,0 -4.21099,0.14187 -6.64845,0.42188 -2.32664,0.28001 -3.98919,0.69975 -4.98632,1.25976 -0.88635,0.42002 -1.82708,1.18856 -2.82422,2.3086 -0.99713,0.98003 -1.71698,2.17027 -2.16015,3.57031 -0.33239,1.40004 -0.55523,3.22087 -0.66602,5.46094 l -7.81055,70.562505 c -0.1108,0 -1.55049,-0.0709 -4.32031,-0.21094 -2.76982,-0.28001 -5.15221,-0.41992 -7.14648,-0.41992 -12.6304,0 -18.945317,2.52039 -18.945317,7.56054 0,5.60018 -0.11044,13.78999 -0.33203,24.57032 -0.22158,10.64032 -0.33399,18.55031 -0.33399,23.73047 0,1.26004 0.27807,2.38129 0.83204,3.36132 0.55397,0.84003 1.38426,1.53959 2.492176,2.09962 1.218731,0.42001 2.327091,0.83976 3.324231,1.25976 1.10792,0.28001 2.60285,0.49085 4.48632,0.63086 1.99428,0.14 3.54638,0.20899 4.6543,0.20899 h 4.81836 v 30.24219 H 97.694713 c -3.76697,0 -6.646357,0.48872 -8.640637,1.46874 -1.994271,0.98004 -2.992185,3.00976 -2.992185,6.08985 0,5.32016 -0.05524,12.60151 -0.166014,21.84179 -0.110797,9.24029 -0.166013,15.40038 -0.166013,18.48047 0,7.70024 0.995957,12.32128 2.990228,13.86133 2.105068,1.40004 7.755361,2.09961 16.951178,2.09961 h 3.99023 l -7.97852,73.08203 4.98633,9.66015 c 15.95419,0.56002 28.25269,0.83985 36.89453,0.83985 1.99428,0 3.71009,-0.41975 5.1504,-1.25976 1.5511,-0.70003 2.71468,-1.5395 3.49023,-2.51954 0.88635,-0.84002 1.60814,-2.24111 2.16211,-4.20117 0.55396,-2.10005 0.8853,-3.77901 0.99609,-5.03906 0.2216,-1.26004 0.44249,-3.22078 0.66406,-5.88086 0.33239,-2.66008 0.61045,-4.62083 0.83204,-5.88086 l 5.31836,-59.2207 h 6.64648 c 2.88062,0 5.09734,-0.13992 6.64844,-0.41993 -1.21872,10.08031 -2.65842,23.65972 -4.32032,40.74024 -1.5511,17.08052 -2.65945,28.70114 -3.32422,34.86133 0.77556,5.32017 7.97599,7.98046 21.60353,7.98046 2.43744,0 5.20834,-0.0709 8.31054,-0.21093 3.213,-0.14 5.09643,-0.20898 5.65039,-0.20898 4.54251,0 8.25415,-1.19024 11.13476,-3.57031 2.88062,-2.24007 4.81928,-5.39105 5.81641,-9.45117 1.10793,-4.20014 1.82778,-8.11967 2.16016,-11.75978 0.44317,-3.64011 0.66406,-7.97938 0.66406,-13.01953 0,-5.04015 0.0553,-8.40002 0.16602,-10.08007 l 3.65625,-38.22267 c 3.1022,0 7.53563,0.13992 13.29687,0.41993 5.76124,0.28001 10.08227,0.41992 12.96289,0.41992 2.10507,0 3.32192,-1.53904 3.6543,-4.61914 v -55.4414 h -24.59571 c 0.44318,-3.78012 0.99736,-9.31158 1.66211,-16.5918 0.66476,-7.28023 1.21894,-12.80973 1.66212,-16.58984 0.22158,0 0.8862,0.0709 1.99413,0.21093 1.21872,0.14001 2.7156,0.27992 4.48829,0.41993 1.77268,0.14 3.4885,0.20897 5.15038,0.20897 12.40882,0 18.61329,-2.94012 18.61329,-8.82031 v -36.12109 c 0,-9.8003 -1.32925,-14.84109 -3.98828,-15.12109 h -20.27539 l 7.97851,-78.541015 c 0,-1.68006 -0.27806,-2.8703 -0.83203,-3.57032 -0.44317,-0.70002 -0.99735,-1.11976 -1.66211,-1.25976 -0.55396,-0.14001 -1.60515,-0.21094 -3.15625,-0.21094 h -39.88672 c -1.99427,2.52008 -4.15382,9.09991 -6.48046,19.740235 -2.21587,10.50032 -3.71274,21.42137 -4.48829,32.76172 v 31.5 h -16.28515 c 1.21872,-8.82027 2.71364,-22.04892 4.48632,-39.68945 1.77269,-17.64055 3.26761,-30.871145 4.48633,-39.691415 -0.66476,-2.52007 -2.04923,-4.20099 -4.15429,-5.04101 -1.99428,-0.84003 -4.93085,-1.25977 -8.80859,-1.25977 z m 224.60938,0.41992 c -9.74978,0 -22.82334,0.83948 -39.22071,2.51953 h -19.9414 c -18.83481,0 -28.25391,2.38048 -28.25391,7.14063 l 9.47266,167.166015 v 6.50977 c 0.11079,1.54005 0.22319,3.56976 0.33398,6.08984 0.1108,2.52008 0.33168,4.62074 0.66406,6.30079 0.33239,1.54004 0.77612,3.219 1.33008,5.03906 0.55397,1.68005 1.27382,3.08114 2.16016,4.20117 0.99713,1.12003 2.10549,1.95952 3.32421,2.51953 h 14.29102 c 2.99142,0 7.36768,-0.13992 13.1289,-0.41992 5.76123,-0.28001 10.1375,-0.41992 13.12892,-0.41992 1.4403,0 3.6018,0.0709 6.48242,0.21093 2.88062,0.14001 5.04016,0.20899 6.48047,0.20899 2.65903,0 5.04141,-0.069 7.14648,-0.20899 2.10506,-0.28001 4.09894,-0.63077 5.98242,-1.05078 1.99427,-0.56001 3.54637,-1.33051 4.6543,-2.31055 1.10793,-1.12003 1.71733,-2.37925 1.82812,-3.77929 L 401.07752,91.418265 c 0,-5.60017 -4.98567,-8.40039 -14.95703,-8.40039 z m -218.625,133.564465 h 7.31054 c 1.32952,0 3.76713,0.27983 7.3125,0.83984 h 7.97852 c 2.76981,0 4.31996,1.96074 4.65234,5.88086 l -5.98242,46.20117 h -25.92578 c -2.21586,0 -3.32422,-1.96074 -3.32422,-5.88086 0.66476,-4.90015 1.994,-11.97065 3.98828,-21.21093 1.99427,-9.3803 3.32548,-16.17098 3.99024,-20.37111 z M 308.3451,324.94562 c -1.7727,0 -3.21434,4.4102 -4.32227,13.23046 -1.10793,8.68027 -1.66211,18.551 -1.66211,29.61133 l 1.4961,31.91993 c 0.11078,0.42002 0.72019,0.97966 1.82812,1.67969 1.21873,0.70001 1.99379,1.26162 2.32617,1.68163 v 3.35938 h 7.64453 c 4.54251,0.14 9.03117,0.21093 13.4629,0.21093 h 15.7871 c 6.20441,0 11.90992,-0.21084 17.11719,-0.63086 5.20727,-0.27999 10.13771,-0.69973 14.79102,-1.25976 4.76409,-0.56001 8.53096,-1.33052 11.30078,-2.31055 2.88062,-0.98003 4.43271,-2.17027 4.65429,-3.57031 v -66.36132 c 0,-1.54005 -0.55418,-2.73029 -1.66211,-3.57031 -0.99713,-0.84003 -3.3243,-1.53959 -6.98047,-2.09962 -3.54537,-0.70002 -8.75193,-1.1907 -15.62109,-1.47071 -6.86916,-0.28 -16.06542,-0.41991 -27.58789,-0.41991 z"
       sodipodi:insensitive="true" />
    <path
       id="path1501"
       d="m 70,30 h 360 a 40,40 45 0 1 40,40 v 360 a 40,40 135 0 1 -40,40 H 70 A 40,40 45 0 1 30,430 V 70 A 40,40 135 0 1 70,30 Z"
       style="display:inline;fill:none;stroke:#000000;stroke-width:10;stroke-linecap:round;stroke-linejoin:bevel;stroke-dasharray:none;paint-order:markers fill stroke"
       sodipodi:insensitive="true" />
  </g>
</svg>
